<mxfile host="app.diagrams.net" modified="2021-09-11T12:43:31.247Z" agent="5.0 (Macintosh; Intel Mac OS X 10_14_6) AppleWebKit/537.36 (KHTML, like Gecko) Chrome/92.0.4515.159 Safari/537.36" etag="Yo56-UL4ABaBAMDkwaxV" version="14.9.7" type="github">
  <diagram id="oS8JlnshZZL8cdZx8A73" name="Page-1">
    <mxGraphModel dx="1186" dy="618" grid="1" gridSize="10" guides="1" tooltips="1" connect="1" arrows="1" fold="1" page="1" pageScale="1" pageWidth="827" pageHeight="1169" math="0" shadow="0">
      <root>
        <mxCell id="0" />
        <mxCell id="1" parent="0" />
        <mxCell id="XZEnlKwq88abkI5CFJ9S-1" value="" style="rounded=0;whiteSpace=wrap;html=1;" vertex="1" parent="1">
          <mxGeometry x="120" y="200" width="290" height="400" as="geometry" />
        </mxCell>
        <mxCell id="XZEnlKwq88abkI5CFJ9S-5" value="Distribution System" style="rounded=0;whiteSpace=wrap;html=1;" vertex="1" parent="1">
          <mxGeometry x="710" y="220" width="150" height="170" as="geometry" />
        </mxCell>
        <mxCell id="XZEnlKwq88abkI5CFJ9S-6" value="Order Generator" style="ellipse;whiteSpace=wrap;html=1;" vertex="1" parent="1">
          <mxGeometry x="150" y="220" width="120" height="80" as="geometry" />
        </mxCell>
        <mxCell id="XZEnlKwq88abkI5CFJ9S-7" value="Data Store" style="shape=cylinder3;whiteSpace=wrap;html=1;boundedLbl=1;backgroundOutline=1;size=15;" vertex="1" parent="1">
          <mxGeometry x="180" y="505" width="60" height="80" as="geometry" />
        </mxCell>
        <mxCell id="XZEnlKwq88abkI5CFJ9S-9" value="" style="endArrow=classic;html=1;exitX=1;exitY=0.5;exitDx=0;exitDy=0;entryX=0;entryY=0.25;entryDx=0;entryDy=0;" edge="1" parent="1" source="XZEnlKwq88abkI5CFJ9S-6" target="XZEnlKwq88abkI5CFJ9S-5">
          <mxGeometry width="50" height="50" relative="1" as="geometry">
            <mxPoint x="410" y="400" as="sourcePoint" />
            <mxPoint x="460" y="350" as="targetPoint" />
          </mxGeometry>
        </mxCell>
        <mxCell id="XZEnlKwq88abkI5CFJ9S-11" value="2.request with a bunch of orders &amp;amp; riders data periodically&amp;nbsp;" style="edgeLabel;html=1;align=center;verticalAlign=middle;resizable=0;points=[];" vertex="1" connectable="0" parent="XZEnlKwq88abkI5CFJ9S-9">
          <mxGeometry x="0.1396" y="-1" relative="1" as="geometry">
            <mxPoint x="-31" y="-2" as="offset" />
          </mxGeometry>
        </mxCell>
        <mxCell id="XZEnlKwq88abkI5CFJ9S-10" value="" style="endArrow=classic;html=1;" edge="1" parent="1" source="XZEnlKwq88abkI5CFJ9S-7" target="XZEnlKwq88abkI5CFJ9S-6">
          <mxGeometry width="50" height="50" relative="1" as="geometry">
            <mxPoint x="220" y="390" as="sourcePoint" />
            <mxPoint x="270" y="340" as="targetPoint" />
          </mxGeometry>
        </mxCell>
        <mxCell id="XZEnlKwq88abkI5CFJ9S-14" value="1.retrieve orders and riders data" style="edgeLabel;html=1;align=center;verticalAlign=middle;resizable=0;points=[];" vertex="1" connectable="0" parent="XZEnlKwq88abkI5CFJ9S-10">
          <mxGeometry x="-0.4" relative="1" as="geometry">
            <mxPoint x="-70" y="-63" as="offset" />
          </mxGeometry>
        </mxCell>
        <mxCell id="XZEnlKwq88abkI5CFJ9S-12" value="" style="endArrow=classic;html=1;exitX=0;exitY=0.712;exitDx=0;exitDy=0;exitPerimeter=0;entryX=1;entryY=0.5;entryDx=0;entryDy=0;" edge="1" parent="1" source="XZEnlKwq88abkI5CFJ9S-5" target="XZEnlKwq88abkI5CFJ9S-15">
          <mxGeometry width="50" height="50" relative="1" as="geometry">
            <mxPoint x="470" y="480" as="sourcePoint" />
            <mxPoint x="370" y="360" as="targetPoint" />
          </mxGeometry>
        </mxCell>
        <mxCell id="XZEnlKwq88abkI5CFJ9S-13" value="3.return with route plans of each rider&amp;nbsp;" style="edgeLabel;html=1;align=center;verticalAlign=middle;resizable=0;points=[];" vertex="1" connectable="0" parent="XZEnlKwq88abkI5CFJ9S-12">
          <mxGeometry x="0.1699" y="2" relative="1" as="geometry">
            <mxPoint as="offset" />
          </mxGeometry>
        </mxCell>
        <mxCell id="XZEnlKwq88abkI5CFJ9S-15" value="Environment Simulator" style="ellipse;whiteSpace=wrap;html=1;" vertex="1" parent="1">
          <mxGeometry x="250" y="300" width="120" height="80" as="geometry" />
        </mxCell>
        <mxCell id="XZEnlKwq88abkI5CFJ9S-16" value="Performance Evaluator" style="ellipse;whiteSpace=wrap;html=1;" vertex="1" parent="1">
          <mxGeometry x="250" y="430" width="120" height="80" as="geometry" />
        </mxCell>
        <mxCell id="XZEnlKwq88abkI5CFJ9S-17" value="" style="endArrow=classic;html=1;" edge="1" parent="1" source="XZEnlKwq88abkI5CFJ9S-15" target="XZEnlKwq88abkI5CFJ9S-16">
          <mxGeometry width="50" height="50" relative="1" as="geometry">
            <mxPoint x="550" y="490" as="sourcePoint" />
            <mxPoint x="510" y="460" as="targetPoint" />
          </mxGeometry>
        </mxCell>
        <mxCell id="XZEnlKwq88abkI5CFJ9S-18" value="4.According to the route plans,&lt;br&gt;&amp;nbsp;simulate the riders and orders status" style="edgeLabel;html=1;align=center;verticalAlign=middle;resizable=0;points=[];" vertex="1" connectable="0" parent="XZEnlKwq88abkI5CFJ9S-17">
          <mxGeometry y="1" relative="1" as="geometry">
            <mxPoint as="offset" />
          </mxGeometry>
        </mxCell>
        <mxCell id="XZEnlKwq88abkI5CFJ9S-19" value="5.save evaluation report" style="endArrow=classic;html=1;exitX=0.5;exitY=1;exitDx=0;exitDy=0;" edge="1" parent="1" source="XZEnlKwq88abkI5CFJ9S-16" target="XZEnlKwq88abkI5CFJ9S-7">
          <mxGeometry x="-1" y="14" width="50" height="50" relative="1" as="geometry">
            <mxPoint x="580" y="590" as="sourcePoint" />
            <mxPoint x="630" y="540" as="targetPoint" />
            <mxPoint x="5" y="-3" as="offset" />
          </mxGeometry>
        </mxCell>
      </root>
    </mxGraphModel>
  </diagram>
</mxfile>
